<svg xmlns="http://www.w3.org/2000/svg" width="1200" height="630" viewBox="0 0 1200 630" role="img" aria-labelledby="title desc">
  <title id="title">Printwright — the 3D model store for agents.</title>
  <desc id="desc">Printwright — the 3D model store for agents. Rights anchored on Hedera.</desc>
  <rect width="1200" height="630" fill="#F4F8F5"/>
  <g transform="translate(520,150) scale(2.5)">
    <path fill="#1B5E45" fill-rule="evenodd" d="M6 32A26 26 0 1 1 58 32A26 26 0 1 1 6 32Z M35 15.5H45.09A3 3 0 0 1 45.09 21.5H35A3 3 0 0 1 35 15.5Z M14.49 24.5H49.51A3 3 0 0 1 49.51 30.5H14.49A3 3 0 0 1 14.49 24.5Z M14.49 33.5H49.51A3 3 0 0 1 49.51 39.5H14.49A3 3 0 0 1 14.49 33.5Z M18.91 42.5H45.09A3 3 0 0 1 45.09 48.5H18.91A3 3 0 0 1 18.91 42.5Z"/>
  </g>
  <text x="600" y="410" fill="#141916" font-family="Archivo, sans-serif" font-size="76" font-weight="700" letter-spacing="-2.3" text-anchor="middle">Printwright</text>
  <text x="600" y="460" fill="#566059" font-family="Archivo, sans-serif" font-size="30" font-weight="400" text-anchor="middle">The 3D model store for agents.</text>
</svg>
