solid printwright
  facet normal 0 0 -1
    outer loop
      vertex 0.000 0.000 0.000
      vertex 0.000 20.000 0.000
      vertex 20.000 20.000 0.000
    endloop
  endfacet
  facet normal 0 0 -1
    outer loop
      vertex 0.000 0.000 0.000
      vertex 20.000 20.000 0.000
      vertex 20.000 0.000 0.000
    endloop
  endfacet
  facet normal 0 0 1
    outer loop
      vertex 0.000 0.000 20.000
      vertex 20.000 0.000 20.000
      vertex 20.000 20.000 20.000
    endloop
  endfacet
  facet normal 0 0 1
    outer loop
      vertex 0.000 0.000 20.000
      vertex 20.000 20.000 20.000
      vertex 0.000 20.000 20.000
    endloop
  endfacet
  facet normal 0 -1 0
    outer loop
      vertex 0.000 0.000 0.000
      vertex 20.000 0.000 0.000
      vertex 20.000 0.000 20.000
    endloop
  endfacet
  facet normal 0 -1 0
    outer loop
      vertex 0.000 0.000 0.000
      vertex 20.000 0.000 20.000
      vertex 0.000 0.000 20.000
    endloop
  endfacet
  facet normal 1 0 0
    outer loop
      vertex 20.000 0.000 0.000
      vertex 20.000 20.000 0.000
      vertex 20.000 20.000 20.000
    endloop
  endfacet
  facet normal 1 0 0
    outer loop
      vertex 20.000 0.000 0.000
      vertex 20.000 20.000 20.000
      vertex 20.000 0.000 20.000
    endloop
  endfacet
  facet normal 0 1 0
    outer loop
      vertex 20.000 20.000 0.000
      vertex 0.000 20.000 0.000
      vertex 0.000 20.000 20.000
    endloop
  endfacet
  facet normal 0 1 0
    outer loop
      vertex 20.000 20.000 0.000
      vertex 0.000 20.000 20.000
      vertex 20.000 20.000 20.000
    endloop
  endfacet
  facet normal -1 0 0
    outer loop
      vertex 0.000 20.000 0.000
      vertex 0.000 0.000 0.000
      vertex 0.000 0.000 20.000
    endloop
  endfacet
  facet normal -1 0 0
    outer loop
      vertex 0.000 20.000 0.000
      vertex 0.000 0.000 20.000
      vertex 0.000 20.000 20.000
    endloop
  endfacet
endsolid printwright
